<?xml version="1.0" encoding="UTF-8"?>
<svg width="100px" height="100px" viewBox="0 0 100 100" version="1.1" xmlns="http://www.w3.org/2000/svg" xmlns:xlink="http://www.w3.org/1999/xlink">
    <title>Office@2x</title>
    <g id="Office" stroke="none" stroke-width="1" fill="none" fill-rule="evenodd">
        <g id="Atoms/Large-Icon/Calculator" transform="translate(25.631690, 26.114231)">
            <polygon id="base" fill="#f9a825" points="37.9062604 21.6607202 37.9062604 0 10.8303601 0 10.8303601 10.8303601 0 10.8303601 0 48.7366205 21.6607202 48.7366205 21.6607202 37.9062604 27.0759003 37.9062604 27.0759003 48.7366205 48.7366205 48.7366205 48.7366205 21.6607202"></polygon>
            <path d="M11.0437662,38.2530453 L11.0437662,43.6949011 L5.6019104,43.6949011 L5.6019104,38.2530453 L11.0437662,38.2530453 Z M43.6949011,38.2530453 L43.6949011,43.6949011 L38.2530453,43.6949011 L38.2530453,38.2530453 L43.6949011,38.2530453 Z M11.0437662,27.3693337 L11.0437662,32.8111895 L5.6019104,32.8111895 L5.6019104,27.3693337 L11.0437662,27.3693337 Z M21.9274778,27.3693337 L21.9274778,32.8111895 L16.485622,32.8111895 L16.485622,27.3693337 L21.9274778,27.3693337 Z M32.8111895,27.3693337 L32.8111895,32.8111895 L27.3693337,32.8111895 L27.3693337,27.3693337 L32.8111895,27.3693337 Z M43.6949011,27.3693337 L43.6949011,32.8111895 L38.2530453,32.8111895 L38.2530453,27.3693337 L43.6949011,27.3693337 Z M11.0437662,16.485622 L11.0437662,21.9274778 L5.6019104,21.9274778 L5.6019104,16.485622 L11.0437662,16.485622 Z M21.9274778,16.485622 L21.9274778,21.9274778 L16.485622,21.9274778 L16.485622,16.485622 L21.9274778,16.485622 Z M32.8111895,16.485622 L32.8111895,21.9274778 L27.3693337,21.9274778 L27.3693337,16.485622 L32.8111895,16.485622 Z M21.9274778,5.6019104 L21.9274778,11.0437662 L16.485622,11.0437662 L16.485622,5.6019104 L21.9274778,5.6019104 Z M32.8111895,5.6019104 L32.8111895,11.0437662 L27.3693337,11.0437662 L27.3693337,5.6019104 L32.8111895,5.6019104 Z" id="accent" fill="#fff9c4"></path>
        </g>
    </g>
</svg>